REM MD5 3222c5a7f83caebf1f535a11383e79ad
FILE "3x3 Eyes - Kyuusei Koushu (Japan) (Disc 2).bin" BINARY
  TRACK 01 MODE2/2352
    INDEX 01 00:00:00
  TRACK 02 AUDIO
    INDEX 00 48:48:42
    INDEX 01 48:50:42
  TRACK 03 AUDIO
    INDEX 00 50:34:52
    INDEX 01 50:36:52
  TRACK 04 AUDIO
    INDEX 00 51:59:42
    INDEX 01 52:01:42
  TRACK 05 AUDIO
    INDEX 00 57:14:08
    INDEX 01 57:16:08
REM LEADOUT 61:54:21
